<?xml version="1.0" standalone="no"?>
<!DOCTYPE svg PUBLIC "-//W3C//DTD SVG 20010904//EN"
 "http://www.w3.org/TR/2001/REC-SVG-20010904/DTD/svg10.dtd">
<svg version="1.0" xmlns="http://www.w3.org/2000/svg"
 width="32.000000pt" height="32.000000pt" viewBox="0 0 32.000000 32.000000"
 preserveAspectRatio="xMidYMid meet">

<g transform="translate(0.000000,32.000000) scale(0.100000,-0.100000)"
fill="#000000" stroke="none">
<path d="M0 258 c1 -61 1 -62 14 -33 16 35 51 70 86 84 21 8 14 10 -37 10
l-63 1 0 -62z"/>
<path d="M220 309 c35 -14 70 -49 86 -84 13 -29 13 -28 14 33 l0 62 -62 -1
c-52 0 -59 -2 -38 -10z"/>
<path d="M150 194 c-76 -29 -89 -40 -61 -49 13 -4 37 3 68 21 l48 27 -37 -32
c-21 -18 -38 -42 -38 -53 0 -16 3 -18 13 -10 10 9 19 7 36 -4 12 -9 25 -14 27
-11 5 5 33 113 34 130 0 12 -22 7 -90 -19z"/>
<path d="M1 63 l-1 -63 63 0 c60 1 61 1 32 14 -35 16 -70 51 -84 86 -8 21 -10
14 -10 -37z"/>
<path d="M310 106 c0 -22 -51 -77 -85 -92 -29 -13 -28 -13 33 -14 l62 0 0 60
c0 33 -2 60 -5 60 -3 0 -5 -6 -5 -14z"/>
</g>
</svg>
